<?xml version="1.0" encoding="utf-8" ?>
<svg baseProfile="tiny" height="300" version="1.2" width="400" xmlns="http://www.w3.org/2000/svg" xmlns:ev="http://www.w3.org/2001/xml-events" xmlns:xlink="http://www.w3.org/1999/xlink"><defs /><line stroke="black" x1="0" x2="400" y1="150" y2="150" /><line stroke="black" x1="0" x2="0" y1="145" y2="155" /><line stroke="black" x1="80" x2="80" y1="145" y2="155" /><line stroke="black" x1="160" x2="160" y1="145" y2="155" /><line stroke="black" x1="240" x2="240" y1="145" y2="155" /><line stroke="black" x1="320" x2="320" y1="145" y2="155" /><line stroke="black" x1="400" x2="400" y1="145" y2="155" /><line stroke="red" x1="0" x2="80" y1="138" y2="120" /><line stroke="green" x1="80" x2="160" y1="132" y2="138" /><line stroke="red" x1="80" x2="160" y1="120" y2="126" /><line stroke="blue" x1="160" x2="240" y1="156" y2="276" /><line stroke="green" x1="160" x2="240" y1="138" y2="258" /><line stroke="red" x1="160" x2="240" y1="126" y2="246" /><line stroke="magenta" x1="240" x2="320" y1="270" y2="240" /><line stroke="blue" x1="240" x2="320" y1="276" y2="246" /><line stroke="green" x1="240" x2="320" y1="258" y2="228" /><line stroke="red" x1="240" x2="320" y1="246" y2="216" /><line stroke="purple" x1="320" x2="400" y1="120" y2="60" /><line stroke="magenta" x1="320" x2="400" y1="240" y2="180" /><line stroke="blue" x1="320" x2="400" y1="246" y2="186" /><line stroke="green" x1="320" x2="400" y1="228" y2="168" /><line stroke="red" x1="320" x2="400" y1="216" y2="156" /><circle cx="400" cy="90" fill="cyan" r="3" /></svg>